<?xml version="1.0" encoding="UTF-8" standalone="no"?>
<!DOCTYPE svg PUBLIC "-//W3C//DTD SVG 20010904//EN"
              "http://www.w3.org/TR/2001/REC-SVG-20010904/DTD/svg10.dtd">

<svg xmlns="http://www.w3.org/2000/svg"
     width="0.586667in" height="0.586667in"
     viewBox="0 0 176 176">
  <path id="Selection"
        fill="black" stroke="none" stroke-width="1"
        d="M 100.00,25.00
           C 100.00,25.00 112.00,25.00 112.00,25.00
             112.00,25.00 112.00,106.00 112.00,106.00
             112.00,106.00 137.72,79.00 137.72,79.00
             137.72,79.00 150.28,66.57 150.28,66.57
             150.28,66.57 166.00,66.00 166.00,66.00
             166.00,66.00 127.00,108.00 127.00,108.00
             127.00,108.00 141.01,123.00 141.01,123.00
             141.01,123.00 169.00,153.00 169.00,153.00
             169.00,153.00 158.00,153.00 158.00,153.00
             148.94,152.94 147.07,148.43 141.09,142.00
             141.09,142.00 122.17,121.00 122.17,121.00
             117.96,116.22 117.38,114.04 112.00,110.00
             112.00,110.00 112.00,153.00 112.00,153.00
             112.00,153.00 100.00,153.00 100.00,153.00
             100.00,153.00 100.00,25.00 100.00,25.00 Z
           M 15.00,84.00
           C 15.00,80.55 14.36,74.09 16.60,71.41
             18.78,68.81 26.61,66.40 30.00,65.67
             42.70,62.94 58.94,63.33 67.20,75.00
             72.97,83.15 72.00,92.59 72.00,102.00
             72.00,102.00 72.00,153.00 72.00,153.00
             72.00,153.00 60.00,153.00 60.00,153.00
             60.00,153.00 60.00,139.00 60.00,139.00
             53.33,145.16 50.85,153.01 35.00,154.70
             31.89,155.03 30.02,154.56 27.00,154.13
             8.07,151.41 1.94,133.32 8.61,117.00
             14.30,103.08 32.28,102.10 45.00,100.27
             47.92,99.85 56.55,99.27 58.40,97.40
             62.24,93.53 57.83,79.88 48.00,76.26
             36.57,72.05 24.89,79.24 15.00,84.00 Z
           M 60.00,109.00
           C 53.05,109.02 47.79,110.06 41.00,111.00
             37.42,111.50 32.36,112.33 29.00,113.55
             17.75,117.61 16.27,132.10 22.39,138.79
             28.31,145.26 40.83,145.03 48.00,140.91
             51.04,139.17 54.21,135.91 56.15,133.00
             59.12,128.55 59.93,124.23 60.00,119.00
             60.00,119.00 60.00,109.00 60.00,109.00 Z" />
</svg>
