<?xml version="1.0" encoding="UTF-8" standalone="no"?>
<!DOCTYPE svg PUBLIC "-//W3C//DTD SVG 20010904//EN"
              "http://www.w3.org/TR/2001/REC-SVG-20010904/DTD/svg10.dtd">

<svg xmlns="http://www.w3.org/2000/svg"
     class="loading-svg"
     width="5.68889in" height="5.68889in"
     viewBox="0 0 512 512">
  <path id="Selection"
        fill="cornsilk" stroke="none" stroke-width="1"
        d="M 248.00,128.53
           C 257.00,127.05 267.00,127.37 273.82,134.18
             286.48,146.85 282.36,171.92 261.00,176.48
             230.59,182.99 218.55,137.71 248.00,128.53 Z
           M 181.00,157.52
           C 187.81,157.37 194.86,159.27 199.82,164.19
             211.92,176.18 208.78,198.01 193.00,205.10
             188.81,206.98 185.50,207.10 181.00,206.99
             160.69,206.49 151.09,182.72 162.63,167.01
             167.35,160.60 173.46,158.51 181.00,157.52 Z
           M 147.00,231.52
           C 151.88,230.74 155.25,230.78 160.00,232.36
             183.85,240.31 182.31,275.07 157.00,280.48
             146.24,282.78 133.97,277.25 129.53,267.00
             127.73,262.85 127.95,258.43 128.00,254.00
             128.05,250.12 128.21,247.56 130.00,244.00
             133.67,236.67 139.42,233.56 147.00,231.52 Z
           M 355.00,231.52
           C 364.99,229.94 375.21,233.17 380.87,242.00
             384.32,247.40 384.07,251.90 384.00,258.00
             383.85,270.00 376.70,277.98 365.00,280.48
             341.88,285.43 326.01,258.17 340.53,240.04
             344.51,235.07 349.05,233.12 355.00,231.52 Z
           M 176.00,305.53
           C 179.05,305.03 180.91,304.94 184.00,305.01
             205.11,305.53 214.76,331.86 200.67,346.82
             194.85,353.00 189.00,354.10 181.00,354.00
             165.59,353.80 157.82,342.43 158.00,328.00
             158.15,316.50 165.23,308.74 176.00,305.53 Z
           M 323.00,305.75
           C 327.27,304.83 333.91,304.51 338.00,305.75
             354.54,311.86 359.79,334.13 347.79,346.90
             342.08,352.97 335.86,354.10 328.00,354.00
             301.17,353.65 295.12,313.84 323.00,305.75 Z
           M 251.00,335.52
           C 259.28,334.21 267.73,336.09 273.82,342.18
             284.89,353.26 282.80,373.61 269.00,381.47
             263.98,384.33 259.54,384.06 254.00,384.00
             234.64,383.76 225.42,362.87 234.53,347.00
             238.43,340.21 243.73,337.47 251.00,335.52 Z" />
</svg>
